<?xml version="1.0" encoding="UTF-8" standalone="no"?>
<!-- Created with Inkscape (http://www.inkscape.org/) -->

<svg
   width="123.80998mm"
   height="74.547356mm"
   viewBox="0 0 123.80998 74.547356"
   version="1.1"
   id="svg1"
   xmlns="http://www.w3.org/2000/svg"
   xmlns:svg="http://www.w3.org/2000/svg">
  <defs
     id="defs1" />
  <g
     id="layer1"
     transform="translate(-43.65625,-11.1125)">
    <path
       style="fill:#000000;stroke-width:0.264583"
       d="m 65.234914,85.612637 c -0.6791,-0.0336 -2.06816,-0.14216 -3.08681,-0.2413 -1.01864,-0.0991 -3.31523,-0.26239 -5.10352,-0.36277 -1.78829,-0.10038 -3.57422,-0.25297 -3.96875,-0.33909 -0.39452,-0.0861 -1.19356,-0.24766 -1.775643,-0.35898 -1.686549,-0.32253 -2.6517,-0.68578 -3.105568,-1.16883 -0.370514,-0.39434 -0.436778,-0.6798 -0.541191,-2.3314 -0.122419,-1.93639 -0.54719,-3.54014 -1.495112,-5.64487 -1.133267,-2.51626 -1.400928,-3.69339 -2.112381,-9.28993 -0.522741,-4.11207 -0.520097,-6.24562 0.01114,-8.98759 0.595252,-3.07238 1.755692,-7.66507 2.252788,-8.91589 0.555289,-1.39724 1.283314,-2.5833 2.327827,-3.79236 2.272382,-2.63036 7.15022,-9.59443 9.019,-12.87639 0.94215,-1.65462 2.15922,-3.35026 3.01012,-4.19375 0.9263,-0.91824 2.91696,-1.97879 5.71463,-3.04454 1.64638,-0.62717 4.48089,-2.06194 4.66633,-2.362 0.0519,-0.084 0.43214,-0.3277 0.84494,-0.54153 0.41279,-0.21383 1.50459,-0.92562 2.42623,-1.58177 2.62868,-1.871455 5.37977,-3.089121 8.37847,-3.70841 2.74563,-0.567024 3.72513,-1.145834 4.66223,-2.754998 0.91845,-1.577163 1.37653,-2.010577 2.11765,-2.003658 1.10982,0.01037 1.94588,1.020562 1.96188,2.370533 0.006,0.487737 0.0751,1.280728 0.15413,1.762202 0.17937,1.093403 0.74532,1.604733 2.42409,2.190149 2.00494,0.699152 4.07092,1.780672 5.00384,2.619442 1.071736,0.96358 1.648726,1.91085 2.010746,3.30109 0.51393,1.97364 1.44909,2.89252 5.21335,5.12258 1.11566,0.66095 2.25595,1.43954 2.53399,1.73019 0.44151,0.46155 0.49269,0.62214 0.40413,1.26821 -0.0959,0.7001 -1.01229,2.64162 -1.71382,3.63124 -0.47287,0.66705 -1.43429,0.99211 -3.55816,1.20303 -2.13104,0.21163 -2.68991,0.40044 -3.87679,1.30975 -0.810706,0.62111 -1.202246,0.75594 -5.254626,1.80943 -1.08282,0.2815 -1.25706,0.45019 -1.8993,1.83879 -0.37068,0.80146 -0.45091,1.24616 -0.46143,2.55764 -0.0125,1.56142 0.002,1.61792 0.88918,3.43958 1.66696,3.42311 2.6119,7.01008 2.34062,8.88492 -0.23878,1.65023 -0.1933,4.02562 0.0841,4.39113 0.13,0.17132 0.66325,0.43662 1.18501,0.58957 2.86144,0.83882 5.025016,2.52855 6.596436,5.15172 0.48323,0.80666 1.38385,2.23541 2.00138,3.175 0.61753,0.93959 1.43705,2.26398 1.82115,2.94307 0.38411,0.6791 0.75891,1.29721 0.83289,1.37358 0.074,0.0764 0.69281,-0.0625 1.37519,-0.30868 1.9494,-0.70319 2.94053,-0.53391 3.78047,0.64568 0.3368,0.473 0.40223,0.77955 0.38653,1.81093 -0.0328,2.15203 -0.77462,4.01324 -2.12137,5.32212 -1.46564,1.42444 -3.44116,2.05661 -7.37403,2.3597 -2.16246,0.16665 -5.215056,0.49597 -9.789576,1.05612 -0.72761,0.0891 -2.07698,0.24407 -2.99861,0.34438 -0.92163,0.10032 -2.39007,0.26888 -3.26319,0.37458 -1.49389,0.18086 -20.1489,0.36991 -22.93056,0.23238 z"
       id="path1" />
    <g
       id="text1-0-0-0"
       style="font-weight:bold;font-size:21.1667px;font-family:'Bradley Hand';-inkscape-font-specification:'Bradley Hand, Bold';fill:#ffffff;stroke:#ffffff;stroke-width:0.0264583"
       aria-label=" lazy&#10;bear&#10;  labs">
      <path
         style="font-weight:normal;font-family:Papyrus;-inkscape-font-specification:'Papyrus, Normal';fill:#000000;stroke:#000000;stroke-width:1;stroke-dasharray:none"
         d="m 128.56477,31.300237 -0.0413,0.547771 0.0207,0.423747 q 0,0.15503 -0.15503,0.258383 l 0.062,0.248047 -0.22738,0.04134 -0.68213,0.423748 -0.26871,0.04134 -0.3204,0.19637 q -0.0413,0 -0.0724,0 -0.031,0.01034 -0.0723,0.02067 -0.19637,0 -0.19637,-0.124024 v -0.258382 l -0.062,-0.465089 0.1447,-1.126548 0.0517,-1.436607 q 0.031,-0.5271 0.22738,-0.868165 l -0.12402,-0.320395 q -0.1757,-0.320394 -0.1757,-0.372071 0,-0.165364 0.25838,-0.599447 0.10335,-0.15503 0.10335,-0.341065 0,-0.144694 -0.31006,-0.268718 l 0.0413,-0.1757 -0.093,-0.04134 v -0.144695 -0.165365 l 0.1757,-0.723471 v -1.777672 l 0.2067,-0.826824 q 0,-0.165365 -0.24804,-0.361736 V 22.61858 l -0.0413,-1.860354 q 0,-0.206706 0.26871,-0.702801 l 0.15503,-0.268718 q -0.3824,-0.1757 -0.3824,-0.320394 0,0.04134 0.062,-0.403077 L 126.65284,18.8772 v -0.403076 l -0.0413,-0.48576 v -0.09302 l 0.1757,-0.527101 -0.1757,-0.733806 0.0413,-0.361736 -0.20671,-1.20923 v -0.103353 -0.06201 l 0.0827,-0.341065 0.062,-0.423748 0.93017,-0.506429 0.42375,-0.320395 0.1757,-0.04134 0.14469,0.227377 0.0207,0.444418 0.0827,0.299723 0.0207,0.175701 v 0.248047 l -0.062,0.764812 v 0.06201 l 0.0207,0.361736 q 0,0.186035 -0.0413,0.268718 l -0.24805,0.537435 -0.031,0.206706 q 0.20671,0.01034 0.25839,0.07235 0.062,0.05168 0.062,0.289388 v 0.227377 q 0,0.206706 -0.24805,0.341065 v 0.258382 l -0.0207,0.206706 v 0.08268 l 0.18603,0.299724 -0.0827,1.974042 v 1.415937 l -0.27905,0.547771 0.15503,0.785483 -0.21704,0.50643 q 0.031,0.09302 0.18603,0.237712 l 0.1757,0.186035 0.0827,3.348638 -0.25839,0.289389 q 0.031,0.196371 0.031,0.423747 0,0.361736 -0.093,0.68213 l 0.093,0.227377 h 0.28939 v 0.382406 z m 11.61688,1.136883 -0.10335,0.196371 -0.16537,0.248047 -0.29972,0.113688 -0.42375,0.227377 -0.40308,0.124024 q -0.3824,0.155029 -0.44442,0.155029 -0.0723,0 -0.14469,-0.08268 -0.062,-0.07235 -0.062,-0.134359 0,-0.103353 0.10335,-0.465089 0.0517,-0.103353 0.0827,-0.361736 l -0.2067,0.134359 -0.93018,0.31006 q -0.27905,0.134358 -0.55811,0.134358 h -0.0207 -0.40307 l -0.48576,0.227377 -0.33073,0.04134 -0.96119,0.196371 -0.39274,-0.06201 -0.27905,0.103353 -0.19637,0.04134 -0.31006,-0.02067 -0.68213,-0.144694 -0.46509,-0.04134 q -0.47542,-0.06201 -0.82682,-0.320394 -0.34107,-0.268718 -0.50643,-0.68213 l -0.27906,-0.103353 -0.062,-0.258383 -0.0207,-0.186035 -0.14469,-0.485759 0.3824,-0.764813 0.12403,-0.341065 q 0.062,-0.134359 0.3824,-0.392741 l 0.80616,-0.66146 0.34106,-0.124023 0.56844,-0.237712 q 0.0103,0 0.0413,0.01034 0.031,0 0.062,0.01034 0.2067,-0.444418 0.78548,-0.444418 l 0.062,-0.06201 h 0.21704 q 0.13436,-0.165365 0.26872,-0.227377 0.13436,-0.06201 0.50643,-0.134359 l 1.29191,-0.227377 0.38241,0.04134 0.48576,-0.103353 0.86816,-0.09302 q 0.44442,-0.103353 0.44442,-0.423748 0,-0.04134 -0.0207,-0.06201 l -0.10335,-0.465089 0.0827,-0.671795 q -0.031,-0.217041 -0.15503,-0.310059 -0.12402,-0.103353 -0.37207,-0.134359 l -0.14469,-0.237712 q -0.22738,-0.372071 -0.37207,-0.475424 -0.1447,-0.113688 -0.54778,-0.19637 l -0.58911,-0.134359 -0.56844,-0.02067 -0.27905,0.04134 q -0.093,-0.04134 -0.1447,-0.103353 -0.0517,-0.06201 -0.0827,-0.186035 l -0.27905,0.124023 -0.3204,0.299724 -1.01286,0.50643 q -0.32039,0.1757 -0.42374,0.341065 l -0.1447,0.206706 q -0.10335,0.165365 -0.27905,0.165365 l -0.20671,-0.04134 -0.29972,-0.144695 -0.3204,-0.06201 q -0.15503,-0.05168 -0.31005,-0.1757 -0.15503,-0.124024 -0.15503,-0.227377 0,-0.06201 0.0207,-0.06201 l 0.1757,-0.124024 0.33073,-0.258382 0.36173,-0.06201 0.54777,-0.279053 0.68213,-0.227377 0.18604,-0.04134 0.44442,-0.237712 0.36173,0.06201 1.25057,-0.268718 0.5271,0.02067 h 0.40308 l 0.42375,0.144694 1.2299,0.237712 0.18603,0.103353 v 0.144694 l -0.14469,0.08268 q 0.062,0.361736 0.25838,0.361736 0.0207,-0.01034 0.031,-0.01034 0.0103,-0.01034 0.031,-0.01034 l 0.28938,-0.124023 h 0.0413 q 0.10336,0 0.13436,0.103353 l 0.20671,0.382406 0.21704,0.165365 v 0.237712 l -0.0413,0.5271 q 0,0.341065 0.33073,0.589113 l 0.13436,1.529624 -0.27905,0.382407 0.32039,0.372071 0.0207,0.134358 -0.062,0.971519 0.0827,0.744142 v 0.165365 0.237712 l -0.14469,0.04134 q 0.0207,0.258382 0.031,0.330729 0.0103,0.07235 0.0724,0.217042 0.062,0.134359 0.14469,0.320394 z m -1.64331,-1.798343 q -0.15503,-0.134359 -0.19638,-0.227376 l 0.0413,-0.423748 -0.0827,-0.950848 0.12403,-0.279053 -0.33073,-0.186035 -0.1757,0.04134 -0.95085,-0.06201 -0.44442,0.02067 -0.34106,-0.237712 -0.20671,0.124023 -0.56844,0.02067 -0.40308,0.155029 -0.23771,-0.134359 -0.28939,0.175701 -1.55029,0.744141 -0.34107,0.248048 -0.26872,0.403077 -0.36173,0.217041 q -0.0827,0.08268 -0.0827,0.186035 0,0 0,0.01034 0.0103,0.01033 0.0207,0.03101 l 0.0827,0.124023 -0.0207,0.09302 0.22737,0.930177 -0.22737,0.589112 0.16536,0.206706 0.27906,-0.330729 q 0.14469,0.124023 0.26871,0.206706 0.12403,0.08268 0.29973,0.144694 0.1757,0.05168 0.44441,0.113688 l 0.21705,0.289389 0.71313,0.07235 0.19637,-0.196371 0.20671,0.103353 0.14469,-0.08268 0.11369,-0.06201 q 0.24805,0.08268 0.28939,0.08268 0.31006,0 0.80615,-0.289388 0.031,-0.02067 0.0827,-0.04134 0.0517,-0.03101 0.15503,-0.09302 0.93017,0 1.2299,-0.382406 l 0.2067,-0.268718 0.50643,-0.423747 0.0207,-0.124024 -0.0207,-0.134359 q 0.15503,-0.05168 0.19637,-0.124024 0.0413,-0.07235 0.062,-0.279053 z m 12.13364,1.271242 q 0,0.07235 -0.093,0.258383 l -0.18603,0.248047 -0.1447,0.279053 h -0.13435 q -0.16537,0.320395 -0.3204,0.444418 -0.15503,0.124024 -0.39274,0.124024 l -0.19637,-0.02067 -0.73381,-0.144695 -1.12655,0.04134 -0.84749,-0.299723 -1.01286,0.1757 -0.68213,-0.06201 -0.42375,0.124024 q -0.21704,0.06201 -0.5271,0.06201 h -0.18603 l -0.76482,-0.02067 -0.34106,0.02067 -0.82683,0.06201 q -0.34106,0 -0.34106,-0.320394 0,-0.113688 0.0517,-0.165365 l 0.58911,-0.630453 0.82682,-1.147219 0.63046,-0.589112 0.21704,-0.423748 q 0.16536,0.04134 0.2067,0.04134 0.12403,0 0.29973,-0.155029 0.2067,-0.248047 0.2067,-0.310059 0,-0.08268 -0.10335,-0.217041 l 1.39527,-1.860355 q 0.3824,0 0.44441,-0.206706 l 0.13436,-0.496095 0.5271,-0.651124 0.46509,-0.806153 0.16537,-0.227377 -0.58912,-0.217041 -1.65364,0.04134 -1.27125,-0.124024 -0.65112,0.04134 h -0.0827 -0.1757 -0.16537 l -0.25838,0.02067 -0.48576,0.124024 q -0.14469,0 -0.14469,-0.206706 0,-0.186036 0.10335,-0.217042 l 0.40308,-0.268718 q 0.26871,-0.19637 0.48576,-0.578777 0.0413,-0.02067 0.0517,-0.02067 0.0207,0 0.031,0 l 0.68213,0.134359 0.18603,-0.134359 q 0.36174,0.299724 0.54777,0.299724 0.093,0 0.13436,-0.02067 l 0.28939,-0.06201 0.27906,0.04134 0.40307,-0.02067 1.01286,0.258382 1.10588,-0.155029 0.42375,0.04134 0.40307,-0.06201 0.44442,-0.04134 0.42375,-0.08268 q 0.23771,0.03101 0.3514,0.444418 l -0.1447,0.165364 -0.48575,0.599448 -0.29973,0.423747 q -0.0827,0.15503 -0.15503,0.206706 -0.062,0.04134 -0.24804,0.04134 l -0.18604,-0.02067 q 0,0.103353 -0.0207,0.227377 -0.0207,0.113688 -0.0724,0.196371 -0.0413,0.07235 -0.16536,0.206706 -0.11369,0.134359 -0.31006,0.341065 l -0.25838,0.341065 q -0.16537,0.05168 -0.3204,0.165364 v 0.175701 q 0,0.124023 -0.062,0.186035 l -0.40308,0.423747 -0.3824,0.527101 q -0.39275,0.413412 -0.39275,0.516765 0,0.06201 0.0207,0.103353 -0.10336,0.134359 -0.16537,0.206706 -0.062,0.07235 -0.0724,0.09302 l -0.78548,1.074871 -0.56844,0.206706 q -0.10335,0.124024 -0.10335,0.279054 0,0.08268 0.062,0.320394 l -0.42375,0.609783 -0.12402,0.258382 h 0.60978 l 0.63045,-0.02067 q 0.16537,0 0.47543,0.165365 0.26871,-0.165365 0.33073,-0.165365 l 1.12654,0.02067 1.49862,-0.134359 0.78549,0.175701 0.25838,0.04134 0.16536,-0.04134 v -0.237712 l 0.18604,-0.06201 q 0.51676,-0.165365 0.74414,-0.165365 0.0827,0 0.13436,0.05168 0.062,0.04134 0.062,0.134358 z m 10.19061,-0.950847 -0.3514,0.971518 v 0.04134 l 0.0413,0.15503 0.20671,0.248047 -0.0827,0.558106 0.0413,0.795819 -0.10336,0.258382 0.0207,1.095542 -0.15503,0.361736 -0.10335,0.50643 -0.16536,0.341065 0.0207,0.5271 -0.36174,0.888836 -0.0827,0.237712 -0.29972,0.186036 -0.78549,1.002524 -0.46509,0.692465 q -0.25838,0.403077 -0.5271,0.527101 l -0.26871,0.155029 -0.25839,0.268718 -0.32039,0.196371 -0.18604,0.165365 -0.44442,0.124024 q -0.0103,0 -0.66145,0.299723 l -0.65113,0.237712 -0.93018,0.268718 -0.97151,-0.103353 -0.51677,-0.06201 q -0.37207,-0.03101 -0.63045,-0.1757 l -0.7028,-0.444418 -0.3514,-0.08268 -0.27906,-0.382406 -0.54777,-0.33073 q -0.19637,-0.165365 -0.19637,-0.578777 0,-0.434083 0.29972,-0.826824 0.093,-0.113689 0.40308,-0.144695 l 0.12403,0.299724 0.10335,0.289389 0.40308,0.558106 0.40307,0.630454 q 0.21704,0.217041 0.3204,0.217041 h 0.0207 l 0.14469,-0.02067 0.86817,0.351401 0.72347,0.05168 q 0.13436,0.103353 0.26872,0.103353 0.10335,0 0.27905,-0.134359 l 0.23771,0.03101 q 0.43408,0 1.24024,-0.361736 0.71313,-0.3514 0.86816,-0.5271 l 0.78549,-0.806154 0.48576,-0.299723 q 0.26871,-0.206706 0.44441,-0.764813 l 0.25839,-0.847495 0.3824,-0.589112 -0.062,-0.444418 0.18604,-0.826824 0.0207,-0.847495 q 0,-0.434083 0.19637,-0.868165 l 0.16536,-0.568442 -0.12402,-0.485759 -0.11369,-1.436607 -0.0207,-0.237712 v -0.103353 l 0.1757,-0.547771 -0.11369,-0.15503 -0.31006,0.15503 -0.36173,0.206706 -0.29973,0.320394 -0.99219,0.630453 -0.50643,0.48576 -0.78548,0.578777 q -0.33073,0.227376 -0.50643,0.289388 l -0.68213,0.113688 -0.37207,0.144695 q -0.22738,0.06201 -0.34107,0.06201 -0.40307,0 -1.07487,-0.258383 -0.67179,-0.258383 -0.91984,-0.527101 -0.40308,-0.403076 -0.40308,-1.03353 l 0.0207,-0.217041 q 0.21704,-0.144694 0.21704,-0.268718 0,-0.02067 -0.0103,-0.03101 0,-0.02067 -0.0103,-0.03101 l -0.21705,-0.299724 -0.0207,-0.299723 0.062,-0.268718 0.40307,-0.930178 -0.0827,-0.361735 v -0.134359 q 0,-0.113688 0.0827,-0.50643 l 0.19637,-0.754477 q 0.062,-0.268718 0.10336,-0.516765 l 0.0207,-0.795819 0.19637,-0.806153 q 0,-0.144694 -0.15503,-0.361736 l -0.28939,-0.04134 -0.031,-0.1757 0.38241,-0.444418 0.23771,-0.08268 0.36174,-0.103353 1.03353,-0.589112 h 0.062 q 0.15503,0 0.24805,0.124024 0.093,0.124023 0.093,0.320394 v 0.06201 l -0.32039,0.785483 -0.14469,0.775148 -0.25839,1.18856 -0.062,0.7028 q -0.0517,0.15503 -0.16536,0.186036 l -0.3204,0.08268 q -0.16536,0.06201 -0.16536,0.237712 0,0.248047 0.42374,0.248047 l -0.29972,2.139408 -0.0827,0.620118 0.062,0.165365 0.14469,0.186035 0.29973,0.496095 0.58911,0.227377 0.27905,0.320394 0.1447,0.06201 h 0.0827 l 0.34107,-0.237712 0.99218,-0.33073 0.42375,-0.299724 0.72347,-0.506429 0.68213,-0.66146 0.44442,-0.268718 0.18604,-0.113688 0.3824,-0.992189 0.062,-0.04134 0.0413,-0.186036 0.21704,-0.258382 -0.093,-0.568442 0.093,-0.15503 -0.0517,-0.444418 0.0724,-0.227376 -0.1757,-0.909507 -0.0827,-1.250572 -0.29973,-0.609782 q -0.0207,-0.04134 -0.0207,-0.134359 v -0.165365 l 0.44442,-0.144694 0.32039,-0.299724 0.60979,-0.08268 0.23771,-0.06201 q 0.29972,0.206706 0.29972,0.3514 v 0.05168 l -0.062,0.372071 0.0413,0.744142 -0.093,0.299724 V 25.8122 l -0.12402,0.465088 0.0207,0.15503 q 0.15503,0.372071 0.23771,0.558106 0.0827,0.186036 0.0827,0.289389 v 0.268718 l 0.0413,0.661459 -0.1447,0.361736 q -0.0413,0.124023 -0.0413,0.186035 0,0.289389 0.33073,0.589112 l -0.0207,0.258383 z"
         id="path2" />
      <path
         style="font-weight:normal;font-family:Papyrus;-inkscape-font-specification:'Papyrus, Normal';fill:#000000;stroke:#000000;stroke-width:1;stroke-dasharray:none"
         d="m 131.97296,54.470567 c 0,0.406522 -0.17226,0.86472 -0.51677,1.374595 l -0.14469,-0.04134 c -0.12403,0.151585 -0.18604,0.285944 -0.18604,0.403077 0,0.117133 0.0207,0.258382 0.062,0.423747 l -0.062,0.103353 -0.0413,0.237712 -0.23771,0.268718 -0.42375,0.578777 -0.50643,0.310059 -1.10588,1.023195 -0.48576,0.248047 -0.88883,0.361736 -0.79582,0.1757 -0.91984,0.144694 h -0.0207 l -0.65113,-0.1757 h -0.44442 l -1.35392,-0.3514 -0.8475,-0.06201 -0.5271,-0.1757 -0.95084,0.382406 -0.13436,0.04134 -0.12403,-0.02067 -0.0207,-0.227377 -0.0207,-0.258382 0.27906,-0.237712 c 0.20671,-0.144695 0.31695,-0.254938 0.33073,-0.33073 l 0.11368,-0.237712 0.16537,-0.248047 -0.0207,-1.16789 c 0.0207,-0.124023 0.0586,-0.213596 0.11369,-0.268717 0.062,-0.06201 0.16535,-0.09302 0.31006,-0.09302 l 0.062,-0.320395 -0.0207,-0.165364 -0.40308,-0.165365 -0.0207,-0.134359 0.062,-1.498619 -0.0413,-0.568442 0.10335,-0.1757 0.1757,0.02067 0.0207,-0.248048 -0.27905,-0.217041 -0.0207,-0.144694 0.0207,-0.124024 0.0413,-0.279053 -0.14469,-0.888836 0.0207,-0.744142 -0.0207,-0.444418 c 0,-0.02756 0.007,-0.04823 0.0207,-0.06201 l 0.18603,-0.341065 c 0.0275,-0.02756 0.0413,-0.07579 0.0413,-0.144694 0,-0.144694 -0.0827,-0.292833 -0.24804,-0.444418 v -0.341065 l -0.0207,-1.819013 -0.062,-0.279053 0.0827,-1.136884 -0.0827,-0.589112 v -0.423748 l 0.28938,-0.444418 -0.12402,-0.258382 c -0.0827,-0.144694 -0.12402,-0.258382 -0.12402,-0.341065 l 0.0207,-0.165365 c 0.25493,-0.117133 0.3824,-0.251492 0.3824,-0.403077 0,-0.192925 -0.12747,-0.299723 -0.3824,-0.320394 l -0.19637,-0.485759 0.15503,-1.095542 -0.19637,-0.403077 c -0.0965,-0.130914 -0.15159,-0.237712 -0.16537,-0.320395 l 0.27905,-0.206706 0.41342,-0.320394 0.53743,-0.15503 0.38241,-0.186035 c 0.062,-0.04134 0.13779,-0.06201 0.22737,-0.06201 0.11025,0 0.20671,0.03445 0.28939,0.103353 0.0896,0.0689 0.13436,0.148139 0.13436,0.237712 0,0.0689 -0.062,0.244602 -0.18603,0.5271 l -0.11369,0.206707 c 0.17225,0.192925 0.25838,0.334174 0.25838,0.423747 v 0.04134 l -0.12402,0.465089 0.0207,0.465088 -0.15503,0.403077 0.11369,1.271243 -0.25839,0.423747 c -0.0413,0.08268 -0.062,0.16192 -0.062,0.237712 0,0.04134 0.007,0.0689 0.0207,0.08268 l 0.34107,0.465089 -0.15503,1.632978 0.15503,0.888836 c 0,0.165365 -0.1068,0.285943 -0.3204,0.361735 l -0.25838,0.08268 0.0207,0.341065 c 0.007,0.151585 0.031,0.254938 0.0724,0.310059 0.0483,0.05512 0.15851,0.134357 0.33073,0.237712 l 0.0207,0.227377 0.0724,0.723471 c 0,0.09646 -0.0241,0.210151 -0.0724,0.341065 l -0.28939,0.651124 c 0,0.08957 0.11024,0.18259 0.33073,0.279053 0.0965,0.04134 0.1757,0.06201 0.23771,0.06201 0.15159,0 0.32729,-0.113688 0.5271,-0.341065 0.13781,0.04134 0.23772,0.06201 0.29973,0.06201 0.12402,0 0.36518,-0.06201 0.72347,-0.186036 l 0.95084,-0.320394 c 0.0896,0.172255 0.19982,0.258382 0.33073,0.258382 0.1447,0 0.25839,-0.01378 0.34107,-0.04134 l 0.0413,-0.217041 0.25838,0.02067 0.5271,-0.02067 c 0.0896,0 0.1757,0.05168 0.25839,0.155029 0.54433,0.01378 0.95774,0.05512 1.24023,0.124024 0.34451,0.0689 0.58567,0.158475 0.72347,0.268718 0.1447,0.110243 0.23772,0.289389 0.27906,0.537436 l 0.31006,0.06201 c 0.0758,-0.130913 0.16191,-0.19637 0.25838,-0.19637 0.0551,0 0.0896,0.01378 0.10335,0.04134 l 0.1757,0.237712 0.31006,0.279053 0.19637,0.444418 0.34107,0.3514 0.0827,0.175701 0.14469,0.733806 0.19637,0.403077 c 0.0275,0.08957 0.0413,0.203261 0.0413,0.341065 z m -1.79835,1.01286 -0.15503,-1.333255 0.0207,-0.3514 c 0,-0.144694 -0.0276,-0.230821 -0.0827,-0.258382 l -0.42375,-0.299724 -0.2067,-0.382406 c -0.10335,-0.158475 -0.28939,-0.313504 -0.55811,-0.465089 l -0.81649,-0.465089 -0.51676,-0.268718 -1.39527,-0.134358 -0.82682,-0.144695 c -0.2136,0 -0.3893,0.03445 -0.5271,0.103353 l -0.99219,0.578777 -0.7028,0.382407 c -0.0689,0.117133 -0.10336,0.234267 -0.10336,0.3514 l 0.0827,0.888836 0.062,0.620118 v 0.227377 l -0.0207,0.217041 -0.24805,0.485759 0.28939,0.909507 -0.0827,0.50643 0.062,1.415936 v 0.08268 c -0.16537,0.124023 -0.27561,0.265272 -0.33073,0.423747 0.16537,0.172255 0.29973,0.258383 0.40308,0.258383 l 0.7338,0.04134 0.34107,0.144694 h 0.34106 l 0.42375,0.15503 0.28939,0.08268 -0.0207,0.08268 0.25838,-0.103353 h 0.14469 l 0.95085,0.04134 0.76481,-0.206706 c 0.55122,-0.09646 0.96119,-0.289389 1.22991,-0.578777 l 0.46508,-0.50643 0.3204,-0.320395 0.3824,-0.733806 0.24805,-0.485759 0.10335,-0.702801 z m 13.18785,2.098066 c 0,0.08957 -0.0172,0.16881 -0.0517,0.237712 l -0.2067,0.361736 -0.48576,0.837159 -0.44442,0.03101 -0.27905,0.227377 c -0.062,0.06201 -0.1688,0.103354 -0.3204,0.124023 l -1.86035,0.361736 -0.28939,0.103353 -0.66146,-0.06201 -0.95085,0.08268 -1.07487,-0.06201 h -0.29972 c -0.15159,-0.117133 -0.24461,-0.186035 -0.27906,-0.206706 l -1.01286,-0.361736 -0.34106,-0.320394 -0.6718,-0.465089 -0.53743,-0.713136 -0.20671,-0.1757 c 0.0827,-0.165365 0.12403,-0.313504 0.12403,-0.444418 0,-0.05512 -0.0138,-0.09646 -0.0413,-0.124024 l -0.27905,-0.444418 -0.062,-0.589112 -0.0207,-0.475424 c 0,-0.158475 0.0379,-0.368626 0.11369,-0.630453 0.11713,-0.413412 0.2136,-0.661459 0.28939,-0.744142 l 0.3824,-0.485759 0.19637,-0.444418 0.48576,-0.465089 0.5271,-0.692465 0.46509,-0.258383 0.6718,-0.465089 0.44441,-0.299723 0.15503,-0.103353 0.31006,-0.06201 0.94051,-0.299724 0.73381,-0.08268 0.44442,-0.186036 0.21704,-0.02067 c 0.3514,0 0.64768,0.18948 0.88884,0.568441 0.13091,-0.01378 0.22738,-0.08613 0.28939,-0.217041 l 0.27905,0.237712 0.3824,0.206706 0.86817,0.847495 c 0.11024,0.137804 0.19292,0.258382 0.24805,0.361735 0.062,0.09646 0.12057,0.199816 0.1757,0.310059 0.062,0.110243 0.11368,0.230822 0.15503,0.361736 0.0482,0.130914 0.1171,1.389063 0.2067,1.657781 l 0.0827,0.258382 -0.10336,0.04134 -0.40307,-0.08268 -0.44442,0.144694 -0.34107,-0.06201 -0.3824,0.103353 -0.72347,-0.08268 -0.69247,0.04134 -0.72347,-0.124023 -1.17823,0.02067 -0.57877,-0.02067 -1.39527,0.186035 -0.50643,-0.02067 -0.7028,0.206706 -0.24805,0.05168 -0.0413,0.248047 c -0.0138,0.172256 -0.0379,0.289389 -0.0723,0.351401 -0.0345,0.06201 -0.11026,-0.923973 -0.22738,-0.841292 l 0.0207,0.196371 c 0.22737,0.172255 0.34795,0.279053 0.36173,0.320394 l 0.26872,1.054201 0.13436,0.258383 c -0.0689,0.0689 -0.10335,0.130914 -0.10335,0.186035 v 0.01033 c 0.007,0.0069 0.0138,0.01723 0.0207,0.03101 l 0.39274,0.124024 0.093,0.258382 c 0.0689,0.241157 0.15847,0.389297 0.26872,0.444418 l 0.5581,0.227377 0.18604,0.403077 c 0.0965,0.04823 0.25149,0.08613 0.46509,0.113688 l 0.14469,0.268718 0.3204,0.04134 0.88883,0.320395 0.74414,-0.144695 1.96371,-0.320394 0.42375,-0.258382 0.66146,-0.403077 0.54777,-0.713136 c 0.0965,-0.117133 0.21015,-0.1757 0.34106,-0.1757 0.24116,0 0.36174,0.106798 0.36174,0.320394 z m -2.43913,-3.809595 c 0,-0.110242 -0.12747,-1.399397 -0.38241,-1.750798 l -0.71313,-0.516765 -0.23772,-0.248047 -0.34106,-0.02067 -0.78548,-0.06201 -0.18604,0.04134 -0.44442,0.248048 -0.56844,0.134359 -0.72347,0.268718 -0.27905,0.103353 -0.33073,1.554427 c -0.20671,0.144694 -0.3204,0.234267 -0.34107,0.268718 l -0.0413,0.124024 1.27124,0.09302 0.1447,-0.02067 0.23771,-0.07235 0.22738,0.05168 0.60978,0.124024 h 0.031 l 0.69247,-0.124024 0.21704,-0.05168 0.16537,0.237712 h 0.23771 l 0.9095,-0.186036 0.37208,0.04134 c 0.17225,-0.02067 0.25838,-0.09991 0.25838,-0.237712 z m 13.19818,5.225532 -0.10335,0.19637 -0.16537,0.248048 -0.29972,0.113688 -0.42375,0.227377 -0.40308,0.124023 c -0.25493,0.103353 -0.40307,0.15503 -0.44441,0.15503 -0.0483,0 -0.0965,-0.02756 -0.1447,-0.08268 -0.0413,-0.04823 -0.062,-0.09302 -0.062,-0.134359 0,-0.0689 0.0344,-0.223931 0.10335,-0.465088 0.0345,-0.0689 0.062,-0.189481 0.0827,-0.361736 l -0.2067,0.134359 -0.93018,0.310059 c -0.18603,0.08957 -0.37207,0.134359 -0.5581,0.134359 h -0.0207 -0.40307 l -0.48576,0.227377 -0.33073,0.04134 -0.96118,0.196371 -0.39275,-0.06201 -0.27905,0.103353 -0.19637,0.04134 -0.31006,-0.02067 -0.68213,-0.144695 -0.46509,-0.04134 c -0.31695,-0.04134 -0.59255,-0.148138 -0.82682,-0.320394 -0.22738,-0.179145 -0.39619,-0.406522 -0.50643,-0.68213 l -0.27905,-0.103353 -0.062,-0.258383 -0.0207,-0.186035 -0.14469,-0.48576 0.3824,-0.764812 0.12403,-0.341065 c 0.0413,-0.08957 0.1688,-0.220486 0.3824,-0.392741 l 0.80616,-0.66146 0.34106,-0.124024 0.56845,-0.237711 c 0.007,0 0.0206,0.0034 0.0413,0.01034 0.0207,0 0.0413,0.0034 0.062,0.01033 0.1378,-0.296279 0.39963,-0.444418 0.78548,-0.444418 l 0.062,-0.06201 h 0.21704 c 0.0896,-0.110243 0.17915,-0.186035 0.26872,-0.227376 0.0896,-0.04134 0.25838,-0.08613 0.50643,-0.134359 l 1.29191,-0.227377 0.38241,0.04134 0.48576,-0.103353 0.86817,-0.09302 c 0.29627,-0.0689 0.44441,-0.210151 0.44441,-0.423747 0,-0.02756 -0.007,-0.04823 -0.0207,-0.06201 l -0.10335,-0.465088 0.0827,-0.671795 c -0.0207,-0.144694 -0.0723,-0.248047 -0.15503,-0.310059 -0.0827,-0.0689 -0.2067,-0.113688 -0.37207,-0.134359 l -0.14469,-0.237712 c -0.15159,-0.248047 -0.27561,-0.406522 -0.37207,-0.475424 -0.0965,-0.07579 -0.27906,-0.141249 -0.54777,-0.196371 l -0.58912,-0.134359 -0.56844,-0.02067 -0.27905,0.04134 c -0.062,-0.02756 -0.11023,-0.06201 -0.1447,-0.103353 -0.0345,-0.04134 -0.062,-0.103352 -0.0827,-0.186036 l -0.27905,0.124024 -0.3204,0.299724 -1.01286,0.50643 c -0.21359,0.117133 -0.35484,0.230822 -0.42374,0.341065 l -0.1447,0.206706 c -0.0689,0.110243 -0.16192,0.165365 -0.27905,0.165365 l -0.20671,-0.04134 -0.29972,-0.144694 -0.32039,-0.06201 c -0.10335,-0.03445 -0.20671,-0.09302 -0.31006,-0.1757 -0.10335,-0.08268 -0.15503,-0.158474 -0.15503,-0.227376 0,-0.04134 0.007,-0.06201 0.0207,-0.06201 l 0.1757,-0.124024 0.33073,-0.258383 0.36173,-0.06201 0.54777,-0.279054 0.68213,-0.227376 0.18604,-0.04134 0.44442,-0.237712 0.36173,0.06201 1.25057,-0.268717 0.52711,0.02067 h 0.40307 l 0.42375,0.144694 1.2299,0.237712 0.18604,0.103353 v 0.144695 l -0.1447,0.08268 c 0.0413,0.241157 0.12746,0.361736 0.25838,0.361736 0.0138,-0.0069 0.0241,-0.01034 0.031,-0.01034 0.007,-0.0069 0.0172,-0.01033 0.031,-0.01033 l 0.28938,-0.124024 h 0.0413 c 0.0689,0 0.11368,0.03445 0.13435,0.103353 l 0.20671,0.382407 0.21704,0.165365 v 0.237712 l -0.0413,0.5271 c 0,0.227377 0.11024,0.423747 0.33073,0.589112 l 0.13436,1.529625 -0.27905,0.382406 0.32039,0.372071 0.0207,0.134359 -0.062,0.971519 0.0827,0.744141 v 0.165365 0.237712 l -0.14469,0.04134 c 0.0138,0.172255 0.0241,0.282499 0.031,0.33073 0.007,0.04823 0.031,0.12058 0.0724,0.217041 0.0413,0.08957 0.0896,0.196371 0.1447,0.320395 z m -1.64331,-1.798343 c -0.10335,-0.08957 -0.16881,-0.165365 -0.19637,-0.227377 l 0.0413,-0.423747 -0.0827,-0.950848 0.12403,-0.279053 -0.33073,-0.186036 -0.1757,0.04134 -0.95085,-0.06201 -0.44442,0.02067 -0.34106,-0.237712 -0.20671,0.124024 -0.56844,0.02067 -0.40308,0.155029 -0.23771,-0.134359 -0.28939,0.1757 -1.55029,0.744142 -0.34107,0.248047 -0.26872,0.403077 -0.36173,0.217042 c -0.0551,0.05512 -0.0827,0.117132 -0.0827,0.186035 v 0.01033 c 0.007,0.0069 0.0138,0.01723 0.0207,0.03101 l 0.0827,0.124024 -0.0207,0.09302 0.22738,0.930177 -0.22738,0.589112 0.16536,0.206706 0.27906,-0.33073 c 0.0965,0.08268 0.18603,0.151585 0.26871,0.206707 0.0827,0.05512 0.1826,0.103351 0.29973,0.144694 0.11713,0.03445 0.26527,0.07235 0.44442,0.113688 l 0.21704,0.289389 0.71313,0.07235 0.19637,-0.196371 0.20671,0.103353 0.14469,-0.08268 0.11369,-0.06201 c 0.16537,0.05512 0.26183,0.08268 0.28939,0.08268 0.20671,0 0.47542,-0.09646 0.80615,-0.289388 0.0207,-0.01378 0.0482,-0.02756 0.0827,-0.04134 0.0345,-0.02067 0.0861,-0.05168 0.15503,-0.09302 0.62011,0 1.03008,-0.127469 1.2299,-0.382406 l 0.2067,-0.268718 0.50643,-0.423748 0.0207,-0.124023 -0.0207,-0.134359 c 0.10335,-0.03445 0.16881,-0.07579 0.19637,-0.124024 0.0275,-0.04823 0.0482,-0.141251 0.062,-0.279053 z m 11.23447,-6.159841 c 0,0.03445 -0.0138,0.06546 -0.0413,0.09302 l -0.58911,0.465089 -0.3204,0.330729 -0.18603,0.07235 -0.27905,-0.1757 -0.18604,-0.186035 -0.62012,-0.02067 -0.58911,-0.237712 -0.22738,-0.06201 c -0.0896,0.151585 -0.18259,0.248048 -0.27905,0.289389 -0.0965,0.03445 -0.29283,0.05168 -0.58911,0.05168 l -0.34107,0.144695 -0.25838,-0.08268 -0.20671,0.165365 -0.82682,0.640789 c -0.13781,0.179145 -0.21704,0.509875 -0.23771,0.992189 l -0.0207,0.785483 -0.22738,0.144694 c 0.13781,0.234267 0.20671,0.461644 0.20671,0.68213 h 0.15503 l 0.0207,0.289389 0.0413,1.333254 0.0207,0.7028 -0.0413,0.630454 c -0.2136,0.124023 -0.3204,0.223931 -0.3204,0.299724 0,0.01378 0.0276,0.07579 0.0827,0.186035 l 0.27906,-0.06201 -0.0207,0.09302 0.0827,0.413412 v 0.05168 c 0,0.103353 -0.0551,0.210151 -0.16537,0.320394 -0.11024,0.110243 -0.22393,0.172255 -0.34106,0.186036 l -0.40308,0.04134 -0.60978,0.320394 -0.25838,-0.155029 0.0413,-0.206706 0.14469,-0.599448 -0.062,-0.795818 0.062,-0.113689 h 0.21704 V 57.94325 l -0.0207,-0.186036 -0.12402,-0.299724 -0.031,-0.423747 -0.0827,-0.361736 v -0.02067 -0.279053 l 0.0207,-0.33073 c 0.0275,-0.03445 0.0551,-0.0689 0.0827,-0.103353 0.0345,-0.04134 0.0758,-0.09991 0.12402,-0.1757 0.0551,-0.07579 0.1137,-0.16881 0.1757,-0.279053 l 0.10335,-0.248048 -0.0207,-0.103353 c -0.32384,0 -0.48576,-0.07235 -0.48576,-0.217041 l 0.0413,-0.785483 -0.062,-0.775148 c 0.0207,-0.0689 0.0654,-0.134359 0.13436,-0.196371 v -0.299723 l -0.13436,-0.124024 -0.0413,-0.248047 -0.0207,-0.558107 -0.22738,-0.444418 c 0.0483,-0.248047 0.15851,-0.458198 0.33073,-0.630453 l 0.64079,-0.341065 0.38241,-0.248047 c 0.19293,0.05512 0.32384,0.120577 0.39274,0.19637 0.0758,0.07579 0.11369,0.199816 0.11369,0.372071 v 0.06201 0.279053 c 0,0.254937 0.0551,0.382406 0.16536,0.382406 h 0.0413 l 0.5271,-0.279053 0.51677,-0.19637 0.88884,-0.48576 0.28938,-0.124023 0.23772,0.06201 0.46508,-0.144694 c 0.26872,-0.08268 0.47198,-0.124023 0.60979,-0.124023 l 0.44442,0.04134 c 0.1378,0.192925 0.25149,0.289388 0.34106,0.289388 0.0138,-0.0069 0.0241,-0.01033 0.031,-0.01033 0.007,-0.0069 0.0172,-0.01033 0.031,-0.01033 l 0.23771,-0.124024 c 0.0551,-0.02756 0.0965,-0.04134 0.12403,-0.04134 0.17225,0 0.33417,0.09302 0.48576,0.279053 0.11024,0.130914 0.16536,0.248047 0.16536,0.3514 z"
         id="path3" />
      <path
         style="font-weight:normal;font-family:Papyrus;-inkscape-font-specification:'Papyrus, Normal';fill:#000000;stroke:#000000;stroke-width:1;stroke-dasharray:none"
         d="m 132.24994,82.833355 -0.0413,0.547771 0.0207,0.423747 q 0,0.15503 -0.15503,0.258383 l 0.062,0.248047 -0.22738,0.04134 -0.68213,0.423748 -0.26871,0.04134 -0.3204,0.196371 q -0.0413,0 -0.0724,0 -0.031,0.01033 -0.0723,0.02067 -0.19637,0 -0.19637,-0.124023 v -0.258383 l -0.062,-0.465088 0.1447,-1.126548 0.0517,-1.436608 q 0.031,-0.5271 0.22737,-0.868165 l -0.12402,-0.320394 q -0.1757,-0.320395 -0.1757,-0.372071 0,-0.165365 0.25838,-0.599448 0.10335,-0.155029 0.10335,-0.341065 0,-0.144694 -0.31005,-0.268718 l 0.0413,-0.1757 -0.093,-0.04134 v -0.144693 -0.165365 l 0.1757,-0.723471 V 75.82602 l 0.2067,-0.826825 q 0,-0.165365 -0.24804,-0.361735 V 74.1517 l -0.0413,-1.860354 q 0,-0.206706 0.26871,-0.702801 l 0.15503,-0.268718 q -0.3824,-0.1757 -0.3824,-0.320394 0,0.04134 0.062,-0.403077 l -0.21704,-0.186035 v -0.403077 l -0.0413,-0.485759 v -0.09302 l 0.1757,-0.5271 -0.1757,-0.733807 0.0413,-0.361736 -0.20671,-1.20923 v -0.103353 -0.06201 l 0.0827,-0.341065 0.062,-0.423747 0.93017,-0.50643 0.42375,-0.320394 0.1757,-0.04134 0.1447,0.227377 0.0207,0.444418 0.0827,0.299724 0.0207,0.1757 v 0.248047 l -0.062,0.764813 v 0.06201 l 0.0207,0.361736 q 0,0.186035 -0.0413,0.268718 l -0.24805,0.537436 -0.031,0.206706 q 0.20671,0.01033 0.25839,0.07235 0.062,0.05168 0.062,0.289388 v 0.227377 q 0,0.206706 -0.24805,0.341065 v 0.258383 l -0.0207,0.206706 v 0.08268 l 0.18604,0.299724 -0.0827,1.974043 v 1.415936 l -0.27905,0.547771 0.15503,0.785483 -0.21704,0.50643 q 0.031,0.09302 0.18603,0.237712 l 0.1757,0.186036 0.0827,3.348638 -0.25839,0.289388 q 0.031,0.196371 0.031,0.423748 0,0.361735 -0.093,0.68213 l 0.093,0.227376 h 0.28939 v 0.382406 z m 11.61688,1.136883 -0.10335,0.196371 -0.16537,0.248047 -0.29972,0.113689 -0.42375,0.227376 -0.40308,0.124024 q -0.3824,0.155029 -0.44441,0.155029 -0.0724,0 -0.1447,-0.08268 -0.062,-0.07235 -0.062,-0.134359 0,-0.103353 0.10335,-0.465089 0.0517,-0.103353 0.0827,-0.361735 l -0.2067,0.134359 -0.93018,0.310059 q -0.27905,0.134359 -0.5581,0.134359 h -0.0207 -0.40307 l -0.48576,0.227376 -0.33073,0.04134 -0.96118,0.19637 -0.39275,-0.06201 -0.27905,0.103353 -0.19637,0.04134 -0.31006,-0.02067 -0.68213,-0.144694 -0.46509,-0.04134 q -0.47542,-0.06201 -0.82682,-0.320395 -0.34107,-0.268717 -0.50643,-0.68213 l -0.27905,-0.103353 -0.062,-0.258382 -0.0207,-0.186036 -0.14469,-0.485759 0.3824,-0.764812 0.12403,-0.341065 q 0.062,-0.134359 0.3824,-0.392742 l 0.80616,-0.661459 0.34106,-0.124024 0.56844,-0.237712 q 0.0103,0 0.0414,0.01034 0.031,0 0.062,0.01034 0.2067,-0.444418 0.78548,-0.444418 l 0.062,-0.06201 h 0.21704 q 0.13436,-0.165365 0.26872,-0.227377 0.13436,-0.06201 0.50643,-0.134359 l 1.29191,-0.227376 0.38241,0.04134 0.48576,-0.103353 0.86817,-0.09302 q 0.44441,-0.103353 0.44441,-0.423747 0,-0.04134 -0.0207,-0.06201 l -0.10335,-0.465089 0.0827,-0.671794 q -0.031,-0.217042 -0.15503,-0.31006 -0.12402,-0.103353 -0.37207,-0.134358 l -0.14469,-0.237712 q -0.22738,-0.372071 -0.37207,-0.475424 -0.1447,-0.113689 -0.54777,-0.196371 l -0.58912,-0.134359 -0.56844,-0.02067 -0.27905,0.04134 q -0.093,-0.04134 -0.1447,-0.103353 -0.0517,-0.06201 -0.0827,-0.186036 l -0.27905,0.124024 -0.3204,0.299724 -1.01286,0.506429 q -0.32039,0.175701 -0.42374,0.341065 l -0.1447,0.206706 q -0.10335,0.165365 -0.27905,0.165365 l -0.20671,-0.04134 -0.29972,-0.144694 -0.32039,-0.06201 q -0.15503,-0.05168 -0.31006,-0.1757 -0.15503,-0.124024 -0.15503,-0.227377 0,-0.06201 0.0207,-0.06201 l 0.1757,-0.124023 0.33073,-0.258383 0.36173,-0.06201 0.54777,-0.279053 0.68213,-0.227377 0.18604,-0.04134 0.44442,-0.237712 0.36173,0.06201 1.25057,-0.268718 0.52711,0.02067 h 0.40307 l 0.42375,0.144694 1.2299,0.237712 0.18604,0.103353 v 0.144694 l -0.1447,0.08268 q 0.062,0.361735 0.25838,0.361735 0.0207,-0.01033 0.031,-0.01033 0.0103,-0.01033 0.031,-0.01033 l 0.28938,-0.124024 h 0.0413 q 0.10335,0 0.13435,0.103353 l 0.20671,0.382406 0.21704,0.165365 v 0.237712 l -0.0413,0.527101 q 0,0.341065 0.33073,0.589112 l 0.13436,1.529625 -0.27905,0.382406 0.32039,0.372071 0.0207,0.134359 -0.062,0.971518 0.0827,0.744142 v 0.165365 0.237712 l -0.14469,0.04134 q 0.0207,0.258383 0.031,0.33073 0.0103,0.07235 0.0724,0.217041 0.062,0.134359 0.1447,0.320395 z m -1.64331,-1.798342 q -0.15503,-0.134359 -0.19637,-0.227377 l 0.0413,-0.423748 -0.0827,-0.950847 0.12403,-0.279054 -0.33073,-0.186035 -0.1757,0.04134 -0.95085,-0.06201 -0.44442,0.02067 -0.34106,-0.237712 -0.20671,0.124024 -0.56844,0.02067 -0.40308,0.15503 -0.23771,-0.134359 -0.28939,0.1757 -1.55029,0.744142 -0.34107,0.248047 -0.26872,0.403077 -0.36173,0.217041 q -0.0827,0.08268 -0.0827,0.186036 0,0 0,0.01033 0.0103,0.01034 0.0207,0.03101 l 0.0827,0.124024 -0.0207,0.09302 0.22737,0.930177 -0.22737,0.589113 0.16536,0.206706 0.27906,-0.33073 q 0.14469,0.124024 0.26871,0.206706 0.12403,0.08268 0.29973,0.144694 0.1757,0.05168 0.44442,0.113689 l 0.21704,0.289388 0.71313,0.07235 0.19637,-0.19637 0.20671,0.103353 0.14469,-0.08268 0.11369,-0.06201 q 0.24805,0.08268 0.28939,0.08268 0.31006,0 0.80615,-0.289389 0.031,-0.02067 0.0827,-0.04134 0.0517,-0.03101 0.15503,-0.09302 0.93017,0 1.2299,-0.382406 l 0.2067,-0.268718 0.50643,-0.423747 0.0207,-0.124024 -0.0207,-0.134359 q 0.15503,-0.05168 0.19637,-0.124023 0.0413,-0.07235 0.062,-0.279053 z m 14.84149,-2.72852 q 0,0.609782 -0.51676,1.374595 l -0.1447,-0.04134 q -0.18603,0.227376 -0.18603,0.403076 0,0.175701 0.062,0.423748 l -0.062,0.103353 -0.0413,0.237712 -0.23772,0.268718 -0.42374,0.578777 -0.50643,0.310059 -1.10588,1.023195 -0.48576,0.248047 -0.88884,0.361736 -0.79582,0.1757 -0.91984,0.144694 h -0.0207 l -0.65112,-0.1757 h -0.44442 l -1.35392,-0.3514 -0.8475,-0.06201 -0.5271,-0.1757 -0.95085,0.382406 -0.13436,0.04134 -0.12402,-0.02067 -0.0207,-0.227376 -0.0207,-0.258383 0.27905,-0.237712 q 0.31006,-0.217041 0.33073,-0.330729 l 0.11369,-0.237712 0.16536,-0.248048 -0.0207,-1.167889 q 0.031,-0.186035 0.11369,-0.268718 0.093,-0.09302 0.31006,-0.09302 l 0.062,-0.320394 -0.0207,-0.165365 -0.40307,-0.165365 -0.0207,-0.134359 0.062,-1.498618 -0.0413,-0.568442 0.10335,-0.1757 0.1757,0.02067 0.0207,-0.248047 -0.27905,-0.217041 -0.0207,-0.144695 0.0207,-0.124023 0.0413,-0.279053 -0.1447,-0.888836 0.0207,-0.744142 -0.0207,-0.444418 q 0,-0.04134 0.0207,-0.06201 l 0.18604,-0.341065 q 0.0413,-0.04134 0.0413,-0.144694 0,-0.217042 -0.24805,-0.444418 v -0.341065 l -0.0207,-1.819014 -0.062,-0.279053 0.0827,-1.136883 -0.0827,-0.589112 v -0.423748 l 0.28939,-0.444418 -0.12402,-0.258382 q -0.12403,-0.217042 -0.12403,-0.341065 l 0.0207,-0.165365 q 0.38241,-0.1757 0.38241,-0.403077 0,-0.289389 -0.38241,-0.320394 l -0.19637,-0.48576 0.15503,-1.095542 -0.19637,-0.403077 q -0.14469,-0.19637 -0.16536,-0.320394 l 0.27905,-0.206706 0.41341,-0.320394 0.53744,-0.15503 0.3824,-0.186035 q 0.093,-0.06201 0.22738,-0.06201 0.16536,0 0.28939,0.103353 0.13436,0.103353 0.13436,0.237712 0,0.103353 -0.18604,0.5271 l -0.11369,0.206706 q 0.25839,0.289389 0.25839,0.423748 v 0.04134 l -0.12403,0.465088 0.0207,0.465089 -0.15503,0.403077 0.11369,1.271242 -0.25838,0.423748 q -0.062,0.124023 -0.062,0.237712 0,0.06201 0.0207,0.08268 l 0.34106,0.465089 -0.15503,1.632977 0.15503,0.888837 q 0,0.248047 -0.32039,0.361735 l -0.25838,0.08268 0.0207,0.341065 q 0.0103,0.227376 0.0723,0.310059 0.0724,0.08268 0.33073,0.237712 l 0.0207,0.227376 0.0724,0.723471 q 0,0.144695 -0.0724,0.341065 l -0.28938,0.651125 q 0,0.134358 0.33073,0.279053 0.14469,0.06201 0.23771,0.06201 0.22737,0 0.5271,-0.341065 0.2067,0.06201 0.29972,0.06201 0.18604,0 0.72347,-0.186035 l 0.95085,-0.320394 q 0.13436,0.258382 0.33073,0.258382 0.21704,0 0.34107,-0.04134 l 0.0413,-0.217041 0.25838,0.02067 0.5271,-0.02067 q 0.13436,0 0.25838,0.155029 0.81649,0.02067 1.24024,0.124024 0.51676,0.103353 0.72347,0.268718 0.21704,0.165364 0.27905,0.537435 l 0.31006,0.06201 q 0.11369,-0.196371 0.25838,-0.196371 0.0827,0 0.10336,0.04134 l 0.1757,0.237712 0.31006,0.279053 0.19637,0.444418 0.34106,0.3514 0.0827,0.1757 0.14469,0.733807 0.19637,0.403077 q 0.0413,0.134358 0.0413,0.341065 z m -1.79834,1.012859 -0.15503,-1.333254 0.0207,-0.3514 q 0,-0.217042 -0.0827,-0.258383 l -0.42375,-0.299724 -0.20671,-0.382406 q -0.15503,-0.237712 -0.5581,-0.465088 l -0.81649,-0.465089 -0.51677,-0.268718 -1.39526,-0.134359 -0.82683,-0.144694 q -0.32039,0 -0.5271,0.103353 l -0.99219,0.578777 -0.7028,0.382406 q -0.10335,0.1757 -0.10335,0.3514 l 0.0827,0.888837 0.062,0.620118 v 0.227376 l -0.0207,0.217042 -0.24804,0.485759 0.28938,0.909507 -0.0827,0.506429 0.062,1.415937 q 0,0 0,0.08268 -0.24804,0.186036 -0.33073,0.423748 0.24805,0.258382 0.40308,0.258382 l 0.73381,0.04134 0.34106,0.144694 h 0.34107 l 0.42375,0.155029 0.28938,0.08268 -0.0207,0.08268 0.25839,-0.103353 h 0.14469 l 0.95085,0.04134 0.76481,-0.206706 q 0.82682,-0.144694 1.2299,-0.578777 l 0.46509,-0.506429 0.32039,-0.320395 0.38241,-0.733806 0.24805,-0.48576 0.10335,-0.7028 z m 11.69956,1.18856 q 0,0.413412 -0.15503,0.692465 -0.14469,0.279054 -0.3514,0.279054 -0.0413,0 -0.2067,-0.04134 l -0.13436,0.237712 -0.18604,0.50643 -0.46509,0.50643 -0.21704,0.299724 -0.28939,0.02067 -0.96118,0.48576 -0.44442,0.06201 -0.75448,0.258383 -0.59944,-0.113688 -0.90951,0.217041 q -0.093,0 -1.01286,-0.196371 -0.43408,-0.09302 -0.54777,-0.186035 l -0.40308,-0.258383 -0.50643,-0.289388 q -0.32039,-0.206706 -0.5271,-0.527101 -0.19637,-0.330729 -0.19637,-0.599447 0,-0.165365 0.3514,-0.444418 0.3514,-0.289389 0.77515,-0.48576 l 0.22738,0.299724 0.19637,0.909507 0.37207,0.227377 0.59945,0.465088 0.28938,0.09302 0.55811,0.268718 h 0.38241 l 0.24804,0.04134 0.50643,-0.144694 0.8475,-0.08268 0.42375,-0.217041 0.40307,-0.144694 q 0.38241,-0.227377 0.74414,-0.930178 0.36174,-0.713135 0.36174,-1.291912 0,-0.217042 -0.13436,-0.382407 l -0.40308,-0.568441 -0.10335,-0.258383 -0.24805,-0.124023 -0.13435,0.165364 -0.22738,-0.02067 -0.55811,-0.08268 h -0.65112 -0.16537 l -0.27905,-0.403076 q -0.21704,0.248047 -0.3514,0.320394 -0.13436,0.06201 -0.51677,0.124024 l -0.36173,0.06201 -0.20671,-0.103353 h -0.25838 l -0.26872,-0.206706 -0.34106,0.06201 -0.3204,-0.155029 -0.44441,-0.144695 q -0.25839,-0.08268 -0.44442,-0.403076 -0.18604,-0.320395 -0.18604,-0.651125 0,-0.506429 0.3514,-1.074871 0.3514,-0.568442 0.98186,-1.043866 0.48575,-0.372071 1.15755,-0.733806 0.67179,-0.361736 1.26091,-0.558107 0.59944,-0.19637 0.98185,-0.19637 0.11369,0 0.78548,0.217041 l 0.29973,0.103353 q 0.7028,-0.124024 0.9095,-0.124024 0.28939,0 0.45476,0.09302 0.1757,0.09302 0.1757,0.227377 0,0.134359 -0.29973,0.382406 -0.28939,0.237712 -0.7338,0.444418 l -0.3204,0.144694 -0.26872,-0.02067 -0.51676,-0.02067 -0.39274,-0.103353 -0.1757,-0.361735 h -0.1447 l -0.1757,0.186035 h -0.31006 -0.29972 l -0.42375,0.06201 -0.32039,-0.08268 -0.16537,0.124024 -0.66146,0.382406 q -0.69246,0.599448 -0.69246,1.085207 0,0.341065 0.20671,0.444418 l 0.68213,0.310059 0.2067,0.113688 v 0.248048 l 0.3204,0.1757 0.34106,-0.320395 0.16537,0.02067 1.73633,-0.124024 0.82682,0.186036 0.38241,-0.06201 0.48576,0.320394 0.72347,0.403077 q 0.21704,0.144695 0.3824,0.651124 l 0.0827,0.279054 q 0.18603,0.651124 0.18603,1.074871 z"
         id="path4" />
    </g>
  </g>
</svg>
